<?xml version="1.0" encoding="UTF-8"?>
<!DOCTYPE svg PUBLIC "-//W3C//DTD SVG 1.1//EN" "http://www.w3.org/Graphics/SVG/1.1/DTD/svg11.dtd">
<svg xmlns="http://www.w3.org/2000/svg" version="1.1" width="512px" height="512px" style="shape-rendering:geometricPrecision; text-rendering:geometricPrecision; image-rendering:optimizeQuality; fill-rule:evenodd; clip-rule:evenodd" xmlns:xlink="http://www.w3.org/1999/xlink">
<g><path style="opacity:1" fill="#b59790" d="M 500.5,82.5 C 486.397,85.4492 472.064,87.7825 457.5,89.5C 456.833,89.5 456.5,89.8333 456.5,90.5C 454.565,89.8505 452.565,89.5172 450.5,89.5C 364.919,82.5082 279.585,74.5082 194.5,65.5C 214.857,63.7402 235.191,61.7402 255.5,59.5C 337.147,67.3646 418.813,75.0313 500.5,82.5 Z"/></g>
<g><path style="opacity:1" fill="#e6dfdf" d="M 194.5,65.5 C 279.585,74.5082 364.919,82.5082 450.5,89.5C 449.848,90.7251 448.681,91.3917 447,91.5C 417.843,95.6415 388.677,99.6415 359.5,103.5C 275.613,94.2139 191.946,84.2139 108.5,73.5C 137.167,70.8333 165.833,68.1667 194.5,65.5 Z"/></g>
<g><path style="opacity:1" fill="#b4968e" d="M 108.5,73.5 C 191.946,84.2139 275.613,94.2139 359.5,103.5C 359.5,103.833 359.5,104.167 359.5,104.5C 328.846,108.965 298.18,113.298 267.5,117.5C 267.167,117.5 266.833,117.5 266.5,117.5C 181.275,106.467 96.275,94.8004 11.5,82.5C 43.8412,79.5659 76.1745,76.5659 108.5,73.5 Z"/></g>
<g><path style="opacity:1" fill="#96706a" d="M 11.5,82.5 C 96.275,94.8004 181.275,106.467 266.5,117.5C 181.335,118.499 96.0016,118.833 10.5,118.5C 10.1716,106.322 10.5049,94.3217 11.5,82.5 Z"/></g>
<g><path style="opacity:1" fill="#835750" d="M 500.5,82.5 C 501.497,100.659 501.83,118.992 501.5,137.5C 500.833,127.326 500.167,116.992 499.5,106.5C 485.52,117.979 471.687,129.645 458,141.5C 457.5,124.17 457.333,106.837 457.5,89.5C 472.064,87.7825 486.397,85.4492 500.5,82.5 Z"/></g>
<g><path style="opacity:1" fill="#cdc0ba" d="M 450.5,89.5 C 452.565,89.5172 454.565,89.8505 456.5,90.5C 456.5,112.167 456.5,133.833 456.5,155.5C 447.91,156.551 439.577,158.218 431.5,160.5C 408.484,165.058 385.484,169.725 362.5,174.5C 360.836,151.351 359.836,128.018 359.5,104.5C 359.5,104.167 359.5,103.833 359.5,103.5C 388.677,99.6415 417.843,95.6415 447,91.5C 448.681,91.3917 449.848,90.7251 450.5,89.5 Z"/></g>
<g><path style="opacity:1" fill="#83574b" d="M 359.5,104.5 C 359.5,128.167 359.5,151.833 359.5,175.5C 328.873,201.156 298.207,226.823 267.5,252.5C 267.5,248.833 267.5,245.167 267.5,241.5C 267.5,222.833 267.5,204.167 267.5,185.5C 267.5,162.833 267.5,140.167 267.5,117.5C 298.18,113.298 328.846,108.965 359.5,104.5 Z"/></g>
<g><path style="opacity:1" fill="#835d51" d="M 457.5,89.5 C 457.333,106.837 457.5,124.17 458,141.5C 471.687,129.645 485.52,117.979 499.5,106.5C 500.167,116.992 500.833,127.326 501.5,137.5C 501.5,145.167 501.5,152.833 501.5,160.5C 500.833,167.678 500.167,175.011 499.5,182.5C 422.128,246.879 344.795,311.213 267.5,375.5C 267.5,371.167 267.5,366.833 267.5,362.5C 267.5,346.167 267.5,329.833 267.5,313.5C 267.5,308.833 267.5,304.167 267.5,299.5C 323.293,253.545 378.96,207.378 434.5,161C 433.552,160.517 432.552,160.351 431.5,160.5C 439.577,158.218 447.91,156.551 456.5,155.5C 456.5,133.833 456.5,112.167 456.5,90.5C 456.5,89.8333 456.833,89.5 457.5,89.5 Z"/></g>
<g><path style="opacity:1" fill="#967569" d="M 266.5,117.5 C 266.833,117.5 267.167,117.5 267.5,117.5C 267.5,140.167 267.5,162.833 267.5,185.5C 266.503,203.659 266.17,221.992 266.5,240.5C 181.5,240.5 96.5,240.5 11.5,240.5C 11.815,244.371 11.4816,248.038 10.5,251.5C 10.5,207.167 10.5,162.833 10.5,118.5C 96.0016,118.833 181.335,118.499 266.5,117.5 Z"/></g>
<g><path style="opacity:1" fill="#b8a099" d="M 359.5,104.5 C 359.836,128.018 360.836,151.351 362.5,174.5C 361.791,175.404 360.791,175.737 359.5,175.5C 359.5,151.833 359.5,128.167 359.5,104.5 Z"/></g>
<g><path style="opacity:1" fill="#835751" d="M 431.5,160.5 C 432.552,160.351 433.552,160.517 434.5,161C 378.96,207.378 323.293,253.545 267.5,299.5C 267.5,291.167 267.5,282.833 267.5,274.5C 267.5,267.167 267.5,259.833 267.5,252.5C 298.207,226.823 328.873,201.156 359.5,175.5C 360.791,175.737 361.791,175.404 362.5,174.5C 385.484,169.725 408.484,165.058 431.5,160.5 Z"/></g>
<g><path style="opacity:1" fill="#885d50" d="M 501.5,160.5 C 501.5,178.833 501.5,197.167 501.5,215.5C 500.674,210.684 500.174,205.684 500,200.5C 422.627,265.378 345.127,330.045 267.5,394.5C 267.5,388.167 267.5,381.833 267.5,375.5C 344.795,311.213 422.128,246.879 499.5,182.5C 500.167,175.011 500.833,167.678 501.5,160.5 Z"/></g>
<g><path style="opacity:1" fill="#885d56" d="M 501.5,215.5 C 501.5,223.833 501.5,232.167 501.5,240.5C 500.673,235.015 500.173,229.348 500,223.5C 422.746,288.532 345.246,353.199 267.5,417.5C 267.5,409.833 267.5,402.167 267.5,394.5C 345.127,330.045 422.627,265.378 500,200.5C 500.174,205.684 500.674,210.684 501.5,215.5 Z"/></g>
<g><path style="opacity:1" fill="#896356" d="M 501.5,240.5 C 501.5,263.5 501.5,286.5 501.5,309.5C 500.662,309.158 500.328,308.492 500.5,307.5C 500.666,303.154 500.499,298.821 500,294.5C 439.833,344.667 379.667,394.833 319.5,445C 317.859,446.129 316.859,447.629 316.5,449.5C 300.388,453.944 284.055,457.944 267.5,461.5C 267.5,453.5 267.5,445.5 267.5,437.5C 267.5,430.833 267.5,424.167 267.5,417.5C 345.246,353.199 422.746,288.532 500,223.5C 500.173,229.348 500.673,235.015 501.5,240.5 Z"/></g>
<g><path style="opacity:1" fill="#9b756f" d="M 267.5,185.5 C 267.5,204.167 267.5,222.833 267.5,241.5C 266.508,249.316 266.174,257.316 266.5,265.5C 181.167,265.5 95.8333,265.5 10.5,265.5C 10.5,260.833 10.5,256.167 10.5,251.5C 11.4816,248.038 11.815,244.371 11.5,240.5C 96.5,240.5 181.5,240.5 266.5,240.5C 266.17,221.992 266.503,203.659 267.5,185.5 Z"/></g>
<g><path style="opacity:1" fill="#9b7c6f" d="M 267.5,241.5 C 267.5,245.167 267.5,248.833 267.5,252.5C 267.5,259.833 267.5,267.167 267.5,274.5C 266.505,285.321 266.172,296.321 266.5,307.5C 204.167,307.5 141.833,307.5 79.5,307.5C 77.5483,304.882 75.215,302.548 72.5,300.5C 69.1951,302.475 66.1951,304.809 63.5,307.5C 45.8333,307.5 28.1667,307.5 10.5,307.5C 10.5,293.5 10.5,279.5 10.5,265.5C 95.8333,265.5 181.167,265.5 266.5,265.5C 266.174,257.316 266.508,249.316 267.5,241.5 Z"/></g>
<g><path style="opacity:1" fill="#89645c" d="M 500.5,307.5 C 446.706,352.122 393.04,396.955 339.5,442C 340.737,442.232 341.737,442.732 342.5,443.5C 333.908,445.815 325.241,447.815 316.5,449.5C 316.859,447.629 317.859,446.129 319.5,445C 379.667,394.833 439.833,344.667 500,294.5C 500.499,298.821 500.666,303.154 500.5,307.5 Z"/></g>
<g><path style="opacity:1" fill="#9b7c75" d="M 267.5,274.5 C 267.5,282.833 267.5,291.167 267.5,299.5C 267.5,304.167 267.5,308.833 267.5,313.5C 266.51,319.31 266.177,325.31 266.5,331.5C 211.331,331.168 156.331,331.501 101.5,332.5C 93.9411,324.395 86.6078,316.062 79.5,307.5C 141.833,307.5 204.167,307.5 266.5,307.5C 266.172,296.321 266.505,285.321 267.5,274.5 Z"/></g>
<g><path style="opacity:1" fill="#8f635c" d="M 500.5,307.5 C 500.328,308.492 500.662,309.158 501.5,309.5C 501.5,317.167 501.5,324.833 501.5,332.5C 461.373,365.455 421.373,398.622 381.5,432C 382.056,432.383 382.389,432.883 382.5,433.5C 369.218,436.957 355.885,440.291 342.5,443.5C 341.737,442.732 340.737,442.232 339.5,442C 393.04,396.955 446.706,352.122 500.5,307.5 Z"/></g>
<g><path style="opacity:1" fill="#303132" d="M 79.5,307.5 C 86.6078,316.062 93.9411,324.395 101.5,332.5C 103.002,334.175 104.335,336.008 105.5,338C 99.4899,337.929 93.4899,337.429 87.5,336.5C 86.791,335.596 85.791,335.263 84.5,335.5C 84.5,339.167 84.5,342.833 84.5,346.5C 76.5634,351.923 68.73,357.59 61,363.5C 60.8299,353.991 60.3299,344.658 59.5,335.5C 59.5,334.167 59.5,332.833 59.5,331.5C 53.406,331.058 47.406,330.058 41.5,328.5C 48.8539,321.479 56.1872,314.479 63.5,307.5C 66.1951,304.809 69.1951,302.475 72.5,300.5C 75.215,302.548 77.5483,304.882 79.5,307.5 Z"/></g>
<g><path style="opacity:1" fill="#9f7c75" d="M 10.5,307.5 C 28.1667,307.5 45.8333,307.5 63.5,307.5C 56.1872,314.479 48.8539,321.479 41.5,328.5C 47.406,330.058 53.406,331.058 59.5,331.5C 59.5,332.833 59.5,334.167 59.5,335.5C 59.5,340.167 59.5,344.833 59.5,349.5C 43.1667,349.5 26.8333,349.5 10.5,349.5C 10.5,335.5 10.5,321.5 10.5,307.5 Z"/></g>
<g><path style="opacity:1" fill="#a17c75" d="M 266.5,331.5 C 266.5,337.5 266.5,343.5 266.5,349.5C 206.167,349.5 145.833,349.5 85.5,349.5C 84.9031,344.706 85.5698,340.373 87.5,336.5C 93.4899,337.429 99.4899,337.929 105.5,338C 104.335,336.008 103.002,334.175 101.5,332.5C 156.331,331.501 211.331,331.168 266.5,331.5 Z"/></g>
<g><path style="opacity:1" fill="#8f695c" d="M 501.5,332.5 C 501.5,346.167 501.5,359.833 501.5,373.5C 500.679,370.359 500.179,367.025 500,363.5C 478.167,382 456.333,400.5 434.5,419C 435.416,419.278 436.082,419.778 436.5,420.5C 418.504,424.832 400.504,429.166 382.5,433.5C 382.389,432.883 382.056,432.383 381.5,432C 421.373,398.622 461.373,365.455 501.5,332.5 Z"/></g>
<g><path style="opacity:1" fill="#383939" d="M 59.5,335.5 C 60.3299,344.658 60.8299,353.991 61,363.5C 68.73,357.59 76.5634,351.923 84.5,346.5C 84.5,358.833 84.5,371.167 84.5,383.5C 76.1646,382.278 67.8313,380.944 59.5,379.5C 59.5,376.833 59.5,374.167 59.5,371.5C 59.5,364.167 59.5,356.833 59.5,349.5C 59.5,344.833 59.5,340.167 59.5,335.5 Z"/></g>
<g><path style="opacity:1" fill="#a18375" d="M 10.5,349.5 C 26.8333,349.5 43.1667,349.5 59.5,349.5C 59.5,356.833 59.5,364.167 59.5,371.5C 43.1667,371.5 26.8333,371.5 10.5,371.5C 10.5,364.167 10.5,356.833 10.5,349.5 Z"/></g>
<g><path style="opacity:1" fill="#a18275" d="M 267.5,313.5 C 267.5,329.833 267.5,346.167 267.5,362.5C 266.523,365.287 266.19,368.287 266.5,371.5C 206.167,371.5 145.833,371.5 85.5,371.5C 85.5,364.167 85.5,356.833 85.5,349.5C 145.833,349.5 206.167,349.5 266.5,349.5C 266.5,343.5 266.5,337.5 266.5,331.5C 266.177,325.31 266.51,319.31 267.5,313.5 Z"/></g>
<g><path style="opacity:1" fill="#8f6a63" d="M 501.5,373.5 C 501.832,383.855 501.499,394.188 500.5,404.5C 479.159,409.835 457.826,415.169 436.5,420.5C 436.082,419.778 435.416,419.278 434.5,419C 456.333,400.5 478.167,382 500,363.5C 500.179,367.025 500.679,370.359 501.5,373.5 Z"/></g>
<g><path style="opacity:1" fill="#a1827c" d="M 87.5,336.5 C 85.5698,340.373 84.9031,344.706 85.5,349.5C 85.5,356.833 85.5,364.167 85.5,371.5C 145.833,371.5 206.167,371.5 266.5,371.5C 266.19,368.287 266.523,365.287 267.5,362.5C 267.5,366.833 267.5,371.167 267.5,375.5C 267.5,381.833 267.5,388.167 267.5,394.5C 267.5,402.167 267.5,409.833 267.5,417.5C 267.5,424.167 267.5,430.833 267.5,437.5C 267.167,437.5 266.833,437.5 266.5,437.5C 266.5,430.833 266.5,424.167 266.5,417.5C 266.5,411.833 266.5,406.167 266.5,400.5C 214.833,400.5 163.167,400.5 111.5,400.5C 111.5,405.167 111.5,409.833 111.5,414.5C 109.901,414.768 108.568,414.434 107.5,413.5C 108.5,413.5 109.5,413.5 110.5,413.5C 110.807,407.907 110.473,402.407 109.5,397C 98.8789,394.51 88.2122,392.344 77.5,390.5C 63.885,387.842 50.2183,385.509 36.5,383.5C 36.5,389.167 36.5,394.833 36.5,400.5C 28.1667,400.5 19.8333,400.5 11.5,400.5C 11.8064,403.385 11.4731,406.052 10.5,408.5C 10.5,396.167 10.5,383.833 10.5,371.5C 26.8333,371.5 43.1667,371.5 59.5,371.5C 59.5,374.167 59.5,376.833 59.5,379.5C 67.8313,380.944 76.1646,382.278 84.5,383.5C 84.5,371.167 84.5,358.833 84.5,346.5C 84.5,342.833 84.5,339.167 84.5,335.5C 85.791,335.263 86.791,335.596 87.5,336.5 Z"/></g>
<g><path style="opacity:1" fill="#3d3d3e" d="M 77.5,390.5 C 78.5981,391.397 78.5981,392.23 77.5,393C 72.3149,396.697 67.3149,400.53 62.5,404.5C 53.7722,403.554 45.1055,402.221 36.5,400.5C 36.5,394.833 36.5,389.167 36.5,383.5C 50.2183,385.509 63.885,387.842 77.5,390.5 Z"/></g>
<g><path style="opacity:1" fill="#494949" d="M 77.5,390.5 C 88.2122,392.344 98.8789,394.51 109.5,397C 110.473,402.407 110.807,407.907 110.5,413.5C 109.5,413.5 108.5,413.5 107.5,413.5C 92.2965,410.859 77.2965,407.859 62.5,404.5C 67.3149,400.53 72.3149,396.697 77.5,393C 78.5981,392.23 78.5981,391.397 77.5,390.5 Z"/></g>
<g><path style="opacity:1" fill="#a7887c" d="M 36.5,400.5 C 45.1055,402.221 53.7722,403.554 62.5,404.5C 77.2965,407.859 92.2965,410.859 107.5,413.5C 108.568,414.434 109.901,414.768 111.5,414.5C 111.5,409.833 111.5,405.167 111.5,400.5C 163.167,400.5 214.833,400.5 266.5,400.5C 266.5,406.167 266.5,411.833 266.5,417.5C 185.998,417.167 105.665,417.501 25.5,418.5C 20.5368,417.574 15.5368,416.908 10.5,416.5C 10.5,413.833 10.5,411.167 10.5,408.5C 11.4731,406.052 11.8064,403.385 11.5,400.5C 19.8333,400.5 28.1667,400.5 36.5,400.5 Z"/></g>
<g><path style="opacity:1" fill="#a88882" d="M 25.5,418.5 C 105.665,417.501 185.998,417.167 266.5,417.5C 266.5,424.167 266.5,430.833 266.5,437.5C 266.5,439.833 266.5,442.167 266.5,444.5C 237.147,443.841 208.147,444.508 179.5,446.5C 128.214,437.043 76.8805,427.71 25.5,418.5 Z"/></g>
<g><path style="opacity:1" fill="#a88e83" d="M 266.5,437.5 C 266.833,437.5 267.167,437.5 267.5,437.5C 267.5,445.5 267.5,453.5 267.5,461.5C 238.167,456.5 208.833,451.5 179.5,446.5C 208.147,444.508 237.147,443.841 266.5,444.5C 266.5,442.167 266.5,439.833 266.5,437.5 Z"/></g>
</svg>
